<svg id="图层_1" data-name="图层 1" xmlns="http://www.w3.org/2000/svg" viewBox="0 0 294 61"><title>LOGO</title><path d="M39.43,12.62a4.52,4.52,0,0,1-.64,2.92,2.51,2.51,0,0,1-1.94.69l-.6-.3-.7-.47-.8-.47a32.52,32.52,0,0,0-4.5-1.84A18.75,18.75,0,0,0,24.05,12a4.61,4.61,0,0,0-4.2,2.07q-1.32,2.08-1.32,8.53a3.89,3.89,0,0,0,1.14,2.94,4.3,4.3,0,0,0,3.14,1.11,8.94,8.94,0,0,0,4.43-1.41,8.65,8.65,0,0,1,3.45-1.4c.67,0,1.27.45,1.78,1.35a6.36,6.36,0,0,1,.77,3.23c0,3.36-.36,5.44-1.1,6.22l-.9.5a5,5,0,0,1-3.15-.9c-1.71-1.32-3-2-3.77-2q-3.81,0-5.12,1.61c-.42.53-.63,2.37-.63,5.5s.63,5.51,1.9,7.14c.67.87,2.14,1.3,4.41,1.3a22.84,22.84,0,0,0,8.71-2.32q5.31-2.32,6.07-2.33c1,0,1.44.91,1.44,2.71v1.2a7.51,7.51,0,0,1-.67,2.61,5.45,5.45,0,0,1-2.07,2.61,8.67,8.67,0,0,1-4.62.94H9.51Q4,53.21,4,51.77V50.7c0-.76.68-1.52,2.05-2.27A4.51,4.51,0,0,0,8.42,46q.35-1.32.35-15.37T8.3,14.69A6.59,6.59,0,0,0,6,11.25,4.28,4.28,0,0,1,4.09,8.14c0-.74.8-1.16,2.41-1.26s6.87-.15,15.81-.15L31,6.7h1.41c2.25,0,3.83.32,4.75,1A5.66,5.66,0,0,1,39.43,12.62Z"/><path d="M88.48,47.87c0,2.33-.14,3.7-.42,4.12s-1,.61-2.12.61a9.29,9.29,0,0,1-2.85-1.25A14.13,14.13,0,0,1,79,47.82q-.77-.93-9.9-14.27T58.32,20.21q-.68,0-.67,9.07A92.83,92.83,0,0,0,59,45.62a8.14,8.14,0,0,0,1.29,3.31,3.94,3.94,0,0,1,.92,2.1l-.27.77q-1,1.14-6.42,1.14H53c-2.88,0-4.58-.21-5.12-.64a2.28,2.28,0,0,1-.8-1.9c0-.47.62-1.08,1.85-1.82a4.79,4.79,0,0,0,2.23-2.23,42.09,42.09,0,0,0,.2-6l.06-1.6L51.57,34c.06-3.19.1-6.81.1-10.88a37.39,37.39,0,0,0-.46-7.66,6.22,6.22,0,0,0-2.45-3c-1.34-1-2-1.89-2-2.71a2.14,2.14,0,0,1,1-1.87,7.14,7.14,0,0,1,3.7-.65h1.5a12.76,12.76,0,0,1,9.63,4.58A143.24,143.24,0,0,1,73.78,26.56q7,10.23,8.11,10.23,1.27,0,1.27-13.17,0-9.8-2.17-12.34a4.45,4.45,0,0,1-1.24-2c0-1,1-1.5,3-1.5a45.37,45.37,0,0,1,8.38.51c1.52.35,2.29,1.07,2.29,2.16,0,.65-.67,1.64-2,3a8.73,8.73,0,0,0-2.19,2.84,69.68,69.68,0,0,0-.2,7.78l-.44,15.51,0,1.47-.07,1.47Q88.48,44.38,88.48,47.87Z"/><path d="M119.24,6.7h1q2.47,0,5.55,5.28A57.7,57.7,0,0,1,129,19.6q2.14,5.79,3.68,9.6T136,38.28q1.83,5.27,2.64,7a9.28,9.28,0,0,0,2.93,3.29c1.4,1,2.11,1.95,2.11,2.72s-.48,1.28-1.44,1.52q-2.34.57-11.6.57-4.21,0-4.22-1.8a10.15,10.15,0,0,1,.67-2.29,8.79,8.79,0,0,0,.67-2.69,11.75,11.75,0,0,0-2-6.92q-.81-1.14-5.05-1.14-7.78,0-8.81.5a5.57,5.57,0,0,0-2.07,2.54,8.23,8.23,0,0,0-1.06,3.78,8.68,8.68,0,0,0,1,3.74,8.13,8.13,0,0,1,.95,3.15c0,.93-1,1.4-3,1.4q-7.15,0-9.56-.67A2,2,0,0,1,96.6,50.8a20,20,0,0,1,3-2.91,10.38,10.38,0,0,0,2.68-3.84q7.22-17.22,9.17-25T114.82,9A4.75,4.75,0,0,1,119.24,6.7ZM112.65,33v.33c0,.27,1,.4,3.11.4h3.84c3.06,0,4.58-.17,4.58-.53,0-1-.94-3.9-2.84-8.83S118.47,17,118.42,17s-1,2.47-2.93,7.41S112.65,32.18,112.65,33Z"/><path d="M164.47,6.87h3.61q8.29,0,12.51,3A9.43,9.43,0,0,1,184.8,18a11,11,0,0,1-1.34,5.35A10.31,10.31,0,0,1,180.24,27a8.54,8.54,0,0,0-1.89,1.42,11.94,11.94,0,0,0,2.59,1.47A13.22,13.22,0,0,1,185.07,33a9.68,9.68,0,0,1,2.44,6.32v.87q0,10-11.94,12.6a43.66,43.66,0,0,1-9,.71h-1.77l-.9,0-1.78,0-1.77-.07q-.87,0-1.77,0l-4.31-.1a39.41,39.41,0,0,1-4.32-.13c-1.15-.23-1.73-.77-1.73-1.64,0-.63.73-1.55,2.2-2.78a6.32,6.32,0,0,0,2-3.81q.48-2.58.48-15.26t-.45-14.56a6.14,6.14,0,0,0-2.31-3.35c-1.23-1-1.85-1.85-1.85-2.62a1.56,1.56,0,0,1,1.32-1.55,34.41,34.41,0,0,1,7.07-.41L160.16,7C162.48,6.91,163.91,6.87,164.47,6.87Zm-1.84,38.41.07,1.37c0,1.32,1.19,2,3.58,2l.3,0,.27,0,1.2,0h1.5a8.12,8.12,0,0,0,5.64-2.11,7.32,7.32,0,0,0,2.32-5.72V39.63a7.85,7.85,0,0,0-2.41-5.78q-2.4-2.41-7.35-2.41h-2.07c-1.7,0-2.63.2-2.8.59a53.17,53.17,0,0,0-.25,7.64l0,.56v.84l0,.27v.57l0,1.13v.27l0,.27v.57l0,.26V45Zm0-20.46.06,1.17c0,.69.49,1,1.47,1h1.54l.27,0,1.8-.06a4.9,4.9,0,0,1,.54,0A6.88,6.88,0,0,0,173.06,25a6.24,6.24,0,0,0,2.14-4.86l.07-.54V18.5a6.38,6.38,0,0,0-2.16-5q-2.15-1.93-6.47-1.94h-1.3c-1.47,0-2.33.36-2.57,1.07a55.28,55.28,0,0,0-.14,5.89v6Z"/><path d="M212.08,8.74c0,.29-.68,1.21-2.05,2.76a10.13,10.13,0,0,0-2.45,3.93q-.37,1.61-.38,15.33t.38,15.16a2.73,2.73,0,0,0,1.63,1.95,14.8,14.8,0,0,0,9.51-.58,17.39,17.39,0,0,0,4.86-3.95q2.61-2.84,4.48-2.84c1,0,1.44.6,1.44,1.81v.87a22.3,22.3,0,0,1-.8,5.56,10.77,10.77,0,0,1-1.27,3.5c-.69.64-2.37,1-5,1H204.46c-5.86,0-9.11-.06-9.73-.17a1.71,1.71,0,0,1-1.61-1.81c0-.53.6-1.39,1.78-2.57a9.45,9.45,0,0,0,2.44-4.61q.27-1.14.26-15t-.4-15.18a5.49,5.49,0,0,0-2.57-2.71c-1.45-.91-2.17-1.94-2.17-3.08q0-1.36,6.52-1.37h8.86a9.5,9.5,0,0,1,3.42.39A1.59,1.59,0,0,1,212.08,8.74Z"/><path d="M269.39,12.62a4.52,4.52,0,0,1-.64,2.92,2.51,2.51,0,0,1-1.94.69l-.6-.3-.7-.47-.8-.47a32.52,32.52,0,0,0-4.5-1.84A18.8,18.8,0,0,0,254,12a4.61,4.61,0,0,0-4.2,2.07q-1.32,2.08-1.32,8.53a3.89,3.89,0,0,0,1.14,2.94,4.3,4.3,0,0,0,3.14,1.11,9,9,0,0,0,4.43-1.41,8.62,8.62,0,0,1,3.44-1.4c.68,0,1.28.45,1.79,1.35a6.36,6.36,0,0,1,.77,3.23c0,3.36-.37,5.44-1.1,6.22l-.9.5a5,5,0,0,1-3.15-.9c-1.71-1.32-3-2-3.77-2-2.55,0-4.25.54-5.12,1.61-.42.53-.64,2.37-.64,5.5s.64,5.51,1.91,7.14c.67.87,2.14,1.3,4.41,1.3a22.84,22.84,0,0,0,8.71-2.32q5.31-2.32,6.07-2.33c1,0,1.44.91,1.44,2.71v1.2a7.51,7.51,0,0,1-.67,2.61,5.51,5.51,0,0,1-2.07,2.61,8.67,8.67,0,0,1-4.62.94H239.46q-5.55,0-5.55-1.44V50.7c0-.76.69-1.52,2.06-2.27A4.51,4.51,0,0,0,238.38,46q.35-1.32.35-15.37t-.47-15.91a6.59,6.59,0,0,0-2.34-3.44,4.28,4.28,0,0,1-1.87-3.11q0-1.11,2.4-1.26t15.82-.15l8.69,0h1.41c2.25,0,3.83.32,4.74,1A5.64,5.64,0,0,1,269.39,12.62Z"/><path d="M285,20.24a5,5,0,0,1,3.68,1.5,4.73,4.73,0,0,1,1.5,3.42v.7a3.09,3.09,0,0,0-.06.5,4,4,0,0,1-1.64,3,5.43,5.43,0,0,1-3.68,1.44h-.57a5,5,0,0,1-3.66-1.52,4.85,4.85,0,0,1-1.52-3.53v-.36A5.09,5.09,0,0,1,280.49,22a4.28,4.28,0,0,1,3.27-1.64l.91-.1Zm-.53,22.5H285a5,5,0,0,1,3.66,1.52,4.5,4.5,0,0,1,1.52,3.2v.9a5.3,5.3,0,0,1-4.84,4.85l-.37.06h-.74a5,5,0,0,1-3.68-1.5,4.67,4.67,0,0,1-1.5-3.38v-.7a4.73,4.73,0,0,1,1.57-3.38A5.27,5.27,0,0,1,284.47,42.74Z"/></svg>